<?xml version="1.0" standalone="no"?>
<!DOCTYPE svg PUBLIC "-//W3C//DTD SVG 20010904//EN"
 "http://www.w3.org/TR/2001/REC-SVG-20010904/DTD/svg10.dtd">
<svg version="1.0" xmlns="http://www.w3.org/2000/svg"
 width="259.000000pt" height="224.000000pt" viewBox="0 0 259.000000 224.000000"
 preserveAspectRatio="xMidYMid meet">
<metadata>
Created by potrace 1.16, written by Peter Selinger 2001-2019
</metadata>
<g transform="translate(0.000000,224.000000) scale(0.100000,-0.100000)"
fill="#000000" stroke="none">
<path d="M1469 2085 c-31 -17 -91 -102 -154 -220 -27 -49 -68 -111 -91 -138
-23 -26 -58 -72 -79 -102 -20 -30 -42 -55 -50 -55 -20 0 -27 -17 -17 -37 18
-35 23 -118 8 -138 -13 -18 -16 -17 -89 17 -42 20 -149 85 -239 144 -164 107
-315 188 -375 200 -27 5 -36 2 -58 -22 -29 -32 -75 -122 -75 -148 0 -23 67
-93 156 -162 42 -33 119 -94 172 -137 53 -43 105 -83 117 -89 46 -24 65 -51
65 -92 0 -22 -5 -56 -12 -75 -15 -45 -108 -170 -203 -275 -40 -45 -90 -103
-111 -131 -20 -27 -61 -76 -90 -107 -29 -32 -91 -108 -137 -170 -47 -62 -113
-144 -146 -183 -56 -65 -61 -74 -61 -117 l0 -48 448 0 447 0 56 77 c31 43 98
130 148 193 51 63 118 152 149 198 31 45 74 107 95 137 50 73 88 85 190 61 55
-14 88 -29 139 -68 82 -60 334 -189 405 -207 52 -13 53 -12 104 21 28 18 55
43 60 56 14 36 11 95 -6 119 -18 26 -232 208 -307 261 -144 102 -238 178 -238
193 0 11 24 30 63 51 66 37 62 31 151 203 28 54 51 84 69 93 20 10 25 17 19
29 -7 11 3 28 37 62 60 62 129 186 137 245 7 45 6 46 -22 47 -70 2 -126 -4
-219 -23 -143 -30 -160 -30 -203 -6 -76 44 -81 55 -126 252 -9 38 -24 78 -33
88 -19 21 -58 23 -94 3z"/>
</g>
</svg>
