<?xml version="1.0" standalone="no"?>
<!DOCTYPE svg PUBLIC "-//W3C//DTD SVG 20010904//EN"
 "http://www.w3.org/TR/2001/REC-SVG-20010904/DTD/svg10.dtd">
<svg version="1.0" xmlns="http://www.w3.org/2000/svg"
 width="259.000000pt" height="224.000000pt" viewBox="0 0 259.000000 224.000000"
 preserveAspectRatio="xMidYMid meet">
<metadata>
Created by potrace 1.16, written by Peter Selinger 2001-2019
</metadata>
<g transform="translate(0.000000,224.000000) scale(0.100000,-0.100000)"
fill="#000000" stroke="none">
<path d="M1454 2028 l-19 -23 23 19 c21 18 27 26 19 26 -2 0 -12 -10 -23 -22z"/>
<path d="M1456 1853 c-3 -3 -6 -19 -6 -35 0 -38 -24 -32 -28 6 -4 34 -26 29
-30 -7 -3 -21 -14 -31 -60 -52 -44 -20 -72 -43 -122 -102 -36 -42 -75 -87 -87
-100 -20 -21 -21 -25 -8 -50 l15 -28 0 32 c0 36 14 50 34 34 10 -8 17 -7 26 4
16 19 34 19 26 0 -3 -9 0 -15 9 -15 18 0 19 -12 4 -27 -16 -16 -1 -36 22 -30
21 6 49 -16 49 -38 0 -8 4 -16 9 -19 12 -8 83 23 97 42 10 14 15 14 44 -4 40
-23 60 -51 44 -62 -9 -5 -6 -22 8 -60 l20 -53 41 6 c35 6 43 4 59 -16 13 -16
21 -20 25 -11 8 20 26 14 20 -8 -6 -24 5 -26 23 -5 17 20 30 19 30 -4 0 -11 9
-21 21 -24 38 -10 15 -38 -80 -96 -86 -53 -95 -62 -113 -107 -10 -27 -27 -60
-37 -74 -16 -20 -22 -22 -34 -11 -13 10 -18 8 -31 -18 -9 -16 -24 -36 -34 -43
-10 -7 -29 -32 -42 -55 -27 -50 -49 -61 -68 -36 -13 17 -16 15 -50 -26 -21
-24 -78 -92 -128 -150 -49 -58 -120 -144 -156 -191 -36 -47 -125 -157 -197
-245 -72 -88 -131 -163 -131 -167 0 -5 44 -8 98 -8 l97 0 57 78 c30 42 91 118
134 168 44 49 126 153 184 229 144 191 187 235 231 235 62 0 182 -45 263 -98
43 -29 80 -52 81 -52 2 0 5 9 8 20 4 14 14 20 35 20 25 0 30 4 34 30 3 17 -1
35 -10 44 -19 19 -8 46 18 46 15 0 20 7 20 25 0 29 4 30 60 10 24 -8 45 -13
47 -11 5 5 -69 65 -225 182 -118 89 -121 93 -125 139 -2 28 2 31 72 55 64 22
76 30 84 55 6 17 22 48 37 70 54 80 74 128 71 171 -2 37 1 44 35 72 30 25 36
34 26 44 -9 9 -18 9 -36 0 -22 -10 -26 -8 -32 10 -4 13 -1 24 7 29 63 36 66
65 5 44 -22 -8 -44 -11 -50 -7 -6 3 -18 5 -27 4 -9 -2 -26 13 -40 33 -16 25
-45 46 -89 68 -36 17 -70 31 -77 32 -6 0 -15 3 -19 7 -4 4 -18 5 -30 2 -20 -5
-24 -2 -25 17 -1 17 -3 19 -6 7 -5 -21 -10 -22 -52 -7 -29 10 -31 14 -25 44 5
31 -5 52 -20 38z m-6 -250 c0 -13 -3 -13 -15 -3 -8 7 -15 19 -15 27 0 13 3 13
15 3 8 -7 15 -19 15 -27z m-140 7 c38 -19 53 -40 29 -40 -15 0 -89 44 -89 53
0 12 19 8 60 -13z m363 -147 c-7 -2 -19 -2 -25 0 -7 3 -2 5 12 5 14 0 19 -2
13 -5z m18 -95 c35 -22 59 -43 52 -45 -10 -4 -133 73 -133 83 0 11 22 1 81
-38z"/>
<path d="M692 1533 c2 -15 -6 -19 -46 -21 -50 -3 -51 -5 -31 -55 6 -14 2 -20
-14 -24 -16 -4 -20 -12 -18 -37 2 -26 -1 -31 -18 -29 -26 2 93 -112 169 -162
l53 -36 6 -66 c6 -60 -1 -96 -22 -113 -4 -3 -44 -59 -90 -125 -83 -119 -232
-313 -301 -390 -19 -23 -78 -97 -130 -165 -102 -133 -227 -283 -241 -288 -26
-10 -3 -22 41 -22 46 0 54 3 83 37 18 21 102 112 188 203 85 91 188 208 229
260 40 52 103 131 139 175 82 99 261 361 261 380 0 9 9 23 20 32 12 11 16 21
10 28 -5 6 -14 23 -19 38 -10 26 -8 28 32 47 69 33 105 69 112 116 6 40 6 41
-23 36 -35 -5 -167 59 -295 143 -47 30 -88 55 -91 55 -4 0 -6 -8 -4 -17z"/>
</g>
</svg>
