<?xml version="1.0" standalone="no"?>
<!DOCTYPE svg PUBLIC "-//W3C//DTD SVG 20010904//EN"
 "http://www.w3.org/TR/2001/REC-SVG-20010904/DTD/svg10.dtd">
<svg version="1.0" xmlns="http://www.w3.org/2000/svg"
 width="447.000000pt" height="447.000000pt" viewBox="0 0 447.000000 447.000000"
 preserveAspectRatio="xMidYMid meet">
<metadata>
Created by potrace 1.16, written by Peter Selinger 2001-2019
</metadata>
<g transform="translate(0.000000,447.000000) scale(0.100000,-0.100000)"
fill="#000000" stroke="none">
<path d="M2790 3606 c-366 -77 -631 -378 -668 -756 l-8 -85 -179 -260 c-170
-247 -215 -312 -311 -450 l-41 -60 -78 -7 c-86 -8 -178 -35 -243 -73 -42 -24
-45 -24 -80 -9 -20 9 -84 35 -142 59 -172 69 -862 354 -897 370 l-33 15 0
-150 c0 -200 34 -432 86 -591 l15 -47 192 -80 c106 -44 226 -94 267 -111 41
-17 122 -50 180 -74 l105 -43 25 -65 c64 -166 162 -278 302 -347 103 -51 148
-61 264 -62 119 0 181 12 268 54 195 94 327 282 343 487 l6 80 66 47 c36 25
140 99 231 165 91 65 197 140 235 167 39 27 108 77 155 110 73 52 91 60 130
60 132 1 307 58 431 140 364 238 481 723 268 1110 -63 114 -216 261 -334 322
-132 68 -215 89 -365 94 -82 2 -148 -1 -190 -10z m310 -281 c174 -46 322 -185
384 -360 27 -74 32 -234 11 -315 -51 -197 -195 -345 -394 -404 -72 -21 -220
-21 -292 0 -190 57 -338 206 -394 398 -27 92 -17 249 20 344 67 166 203 289
375 338 62 17 223 17 290 -1z m-1399 -1496 c42 -12 89 -36 127 -63 240 -177
267 -509 58 -720 -180 -182 -483 -181 -662 2 -54 55 -91 109 -80 119 5 5 44
-9 121 -42 113 -48 155 -65 190 -74 127 -34 259 13 352 127 107 131 94 328
-29 451 -43 43 -119 83 -278 146 -52 20 -99 41 -104 45 -7 7 16 13 119 34 34
6 117 -4 186 -25z"/>
<path d="M2835 3187 c-69 -23 -119 -54 -168 -101 -212 -210 -151 -549 123
-680 59 -28 74 -31 165 -31 92 0 105 3 170 33 82 39 143 95 189 173 44 74 60
144 53 239 -10 147 -96 274 -231 340 -62 31 -79 35 -165 37 -60 2 -111 -2
-136 -10z"/>
</g>
</svg>
