<?xml version="1.0" standalone="no"?>
<!DOCTYPE svg PUBLIC "-//W3C//DTD SVG 20010904//EN"
 "http://www.w3.org/TR/2001/REC-SVG-20010904/DTD/svg10.dtd">
<svg version="1.0" xmlns="http://www.w3.org/2000/svg"
 width="259.000000pt" height="224.000000pt" viewBox="0 0 259.000000 224.000000"
 preserveAspectRatio="xMidYMid meet">
<metadata>
Created by potrace 1.16, written by Peter Selinger 2001-2019
</metadata>
<g transform="translate(0.000000,224.000000) scale(0.100000,-0.100000)"
fill="#000000" stroke="none">
<path d="M1469 2085 c-31 -17 -91 -102 -154 -220 -27 -49 -68 -111 -91 -138
-23 -26 -58 -72 -79 -102 -20 -30 -42 -55 -50 -55 -20 0 -27 -17 -17 -37 18
-35 23 -118 8 -138 -13 -18 -16 -17 -89 17 -42 20 -149 85 -239 144 -164 107
-315 188 -375 200 -27 5 -36 2 -58 -22 -29 -32 -75 -122 -75 -148 0 -23 67
-93 156 -162 42 -33 119 -94 172 -137 53 -43 105 -83 117 -89 46 -24 65 -51
65 -92 0 -22 -5 -56 -12 -75 -15 -45 -108 -170 -203 -275 -40 -45 -90 -103
-111 -131 -20 -27 -61 -76 -90 -107 -29 -32 -91 -108 -137 -170 -47 -62 -113
-144 -146 -183 -52 -59 -61 -76 -61 -108 0 -21 4 -37 9 -35 14 5 139 155 241
288 52 68 111 142 130 165 69 77 218 271 301 390 46 66 86 122 90 125 21 17
28 53 22 113 l-6 66 -53 36 c-76 50 -195 164 -169 162 17 -2 20 3 18 29 -2 25
2 33 18 37 16 4 20 10 14 24 -20 50 -19 52 31 55 40 2 48 6 46 21 -2 9 0 17 4
17 3 0 44 -25 91 -55 106 -70 255 -145 285 -145 13 0 31 7 41 15 16 12 18 22
12 82 -4 37 -11 73 -16 79 -9 11 -3 19 121 159 34 39 71 90 82 114 55 121 132
229 186 263 34 21 35 21 48 3 10 -14 14 -58 14 -168 l0 -149 24 6 c12 3 26 2
30 -2 4 -4 13 -7 19 -7 7 -1 41 -15 77 -32 44 -22 73 -43 89 -67 13 -20 28
-36 34 -36 6 0 29 18 52 39 43 43 139 84 221 97 l47 7 -7 -29 c-10 -41 -47
-101 -119 -195 -61 -80 -84 -113 -122 -178 -11 -18 -36 -59 -56 -90 -20 -31
-40 -70 -46 -86 -8 -25 -21 -33 -84 -55 -70 -24 -74 -27 -72 -55 4 -46 7 -50
125 -139 156 -117 230 -177 225 -182 -2 -2 -23 3 -47 11 -56 20 -60 19 -60
-10 0 -18 -5 -25 -20 -25 -26 0 -37 -27 -18 -46 9 -9 13 -27 10 -44 -4 -26 -9
-30 -34 -30 -21 0 -31 -6 -35 -20 -3 -11 -6 -20 -8 -20 -1 0 -38 23 -81 52
-81 53 -201 98 -263 98 -44 0 -86 -43 -235 -240 -61 -80 -139 -179 -175 -220
-68 -77 -144 -173 -176 -222 l-17 -28 28 0 c25 0 38 12 85 77 31 43 98 130
148 193 51 63 118 152 149 198 31 45 74 107 95 137 50 73 88 85 190 61 55 -14
88 -29 139 -68 82 -60 334 -189 405 -207 52 -13 53 -12 104 21 28 18 55 43 60
56 14 36 11 95 -6 119 -18 26 -232 208 -307 261 -144 102 -238 178 -238 193 0
11 24 30 63 51 66 37 62 31 151 203 28 54 51 84 69 93 20 10 25 17 19 29 -7
11 3 28 37 62 60 62 129 186 137 245 7 45 6 46 -22 47 -70 2 -126 -4 -219 -23
-143 -30 -160 -30 -203 -6 -76 44 -81 55 -126 252 -9 38 -24 78 -33 88 -19 21
-58 23 -94 3z m-964 -431 c40 -26 32 -47 -9 -23 -18 10 -41 17 -50 13 -18 -7
-22 -49 -6 -59 14 -8 13 -35 -1 -35 -32 0 -53 82 -27 108 17 17 64 15 93 -4z
m1614 -1050 c38 -32 41 -67 7 -89 -30 -20 -91 -16 -91 5 0 10 11 15 30 16 59
2 65 4 65 18 0 8 -17 28 -37 45 -25 20 -32 31 -21 31 9 0 30 -12 47 -26z"/>
<path d="M1420 1627 c0 -8 7 -20 15 -27 12 -10 15 -10 15 3 0 8 -7 20 -15 27
-12 10 -15 10 -15 -3z"/>
<path d="M1250 1623 c0 -9 74 -53 89 -53 24 0 9 21 -29 40 -41 21 -60 25 -60
13z"/>
<path d="M1403 1464 c-7 -18 15 -64 34 -71 7 -3 25 -2 39 1 34 9 28 34 -15 63
-40 27 -50 28 -58 7z"/>
<path d="M1648 1463 c6 -2 18 -2 25 0 6 3 1 5 -13 5 -14 0 -19 -2 -12 -5z"/>
<path d="M1610 1406 c0 -10 123 -87 133 -83 7 2 -17 23 -52 45 -59 39 -81 49
-81 38z"/>
</g>
</svg>
