<?xml version="1.0" standalone="no"?>
<!DOCTYPE svg PUBLIC "-//W3C//DTD SVG 20010904//EN"
 "http://www.w3.org/TR/2001/REC-SVG-20010904/DTD/svg10.dtd">
<svg version="1.0" xmlns="http://www.w3.org/2000/svg"
 width="259.000000pt" height="224.000000pt" viewBox="0 0 259.000000 224.000000"
 preserveAspectRatio="xMidYMid meet">
<metadata>
Created by potrace 1.16, written by Peter Selinger 2001-2019
</metadata>
<g transform="translate(0.000000,224.000000) scale(0.100000,-0.100000)"
fill="#000000" stroke="none">
<path d="M1514 2070 c-39 -15 -119 -117 -175 -222 l-56 -105 51 23 c39 18 52
30 56 50 7 37 28 42 32 8 5 -40 26 -42 30 -2 4 42 24 34 21 -9 -2 -28 2 -33
33 -43 19 -7 38 -9 42 -5 11 11 8 293 -3 303 -6 6 -19 6 -31 2z"/>
<path d="M2095 1743 c-80 -17 -178 -60 -207 -90 -40 -42 -29 -58 27 -38 62 21
60 -8 -4 -44 -8 -5 -11 -16 -7 -29 6 -18 10 -20 32 -10 18 9 27 9 36 0 10 -10
4 -19 -25 -43 -29 -24 -37 -37 -37 -64 0 -38 14 -54 25 -27 3 9 5 17 3 17 -1
0 27 37 64 83 75 93 132 183 142 225 7 28 0 31 -49 20z"/>
<path d="M416 1654 c-22 -21 -20 -57 3 -85 23 -29 39 -18 22 15 -29 54 9 84
60 47 36 -27 39 -10 3 18 -32 25 -67 27 -88 5z"/>
<path d="M1190 1555 c-10 -12 -16 -13 -27 -4 -10 9 -17 9 -25 1 -12 -12 -15
-134 -4 -169 6 -18 4 -22 -7 -17 -11 4 -17 -7 -22 -46 -6 -45 -12 -55 -49 -82
-22 -16 -56 -36 -73 -43 -31 -13 -32 -16 -22 -42 5 -15 14 -32 19 -38 6 -7 2
-17 -10 -28 -11 -9 -20 -23 -20 -32 0 -21 -181 -282 -281 -405 -47 -58 -107
-134 -135 -170 -27 -36 -133 -155 -236 -264 -104 -110 -188 -204 -188 -208 0
-4 118 -8 263 -8 257 0 262 0 276 22 7 11 63 82 125 157 62 75 147 181 190
236 43 55 122 151 175 214 166 196 148 179 163 158 19 -25 41 -14 68 36 13 23
32 48 42 55 10 7 25 27 34 43 13 26 18 28 31 18 12 -11 18 -9 34 11 10 14 27
47 37 74 18 45 27 54 113 107 95 58 118 86 80 96 -12 3 -21 13 -21 24 0 23
-13 24 -30 4 -18 -21 -29 -19 -23 5 6 22 -12 28 -20 8 -4 -9 -12 -5 -25 11
-16 20 -24 22 -60 16 l-41 -7 -18 51 c-15 45 -21 51 -45 51 -19 0 -33 8 -45
28 -9 15 -18 28 -19 30 -1 2 -19 -4 -39 -12 -39 -17 -55 -14 -55 9 0 22 -28
44 -49 38 -23 -6 -38 14 -22 30 15 15 14 27 -4 27 -9 0 -12 6 -9 15 8 19 -10
19 -26 0z"/>
<path d="M2075 614 c43 -32 55 -44 55 -59 0 -16 -41 -30 -63 -22 -19 7 -41 -8
-33 -22 11 -17 71 -13 96 7 31 25 21 66 -23 92 -37 23 -61 26 -32 4z"/>
</g>
</svg>
